{"title":"Saving.Private.Ryan.1998.1080p.BluRay.DTS.x264-LTT","uid":5537953,"size":8724387146,"categoryP":"video","categoryS":"hd___movies","magnet":"?xt=urn:btih:9325737c708c53b8fa2c034b4dd55fa822b87939&amp;dn=Saving.Private.Ryan.1998.1080p.BluRay.DTS.x264-LTT&amp;tr=udp%3A%2F%2Ftracker.openbittorrent.com%3A80&amp;tr=udp%3A%2F%2Fopen.demonii.com%3A1337&amp;tr=udp%3A%2F%2Ftracker.coppersurfer.tk%3A6969&amp;tr=udp%3A%2F%2Fexodus.desync.com%3A6969","seeders":1,"leechers":1,"uploader":"Ltt_01","files":2,"time":1273135039,"description":"Saving.Private.Ryan.1998.1080p.BluRay.DTS.mkv\n*********************************************\n\nTiTLE......  Saving Private Ryan\nYEAR.......  1998\nGENRE......  Action | Drama | War \niMDB RATE..  User Rating: 8.5/10 (258,940 votes)\niMDB URL... &lt;a href=&quot; http://www.imdb.com/title/tt0120815/&quot; rel=&quot;nofollow&quot; target=&quot;_NEW&quot;&gt; http://www.imdb.com/title/tt0120815/&lt;/a&gt;\n*************************************************\nWon 5 Oscars. Another 52 wins &amp; 53 nominations \n\nVideo\nDuration                         : 2h 48mn\nOverall bit rate                 : 6 910 Kbps\nWidth                            : 1 920 pixels\nHeight                           : 1 032 pixels\nDisplay aspect ratio             : 1.860\nFrame rate                       : 23.976 fps\nStream size                      : 6.18 GiB (76%)\n\nAudio\nFormat                           : DTS\nFormat/Info                      : Digital Theater Systems\nBit rate                         : 1 510 Kbps\nChannel(s)                       : 6 channels\nChannel positions                : Front: L C R, Surround: L R, LFE\nSampling rate                    : 48.0 KHz\nResolution                       : 24 bits\nStream size                      : 1.78 GiB (22%)\nLanguage                         : English\n\nSubtitles: English, French, Dutch, Italian\n******************************************\nFormat                           : ASS\nCodec ID                         : S_TEXT/ASS\nCodec ID/Info                    : Advanced Sub Station Alpha\n*************************************************************\n\n","torrent":{"xt":"urn:btih:9325737c708c53b8fa2c034b4dd55fa822b87939","amp;dn":"Saving.Private.Ryan.1998.1080p.BluRay.DTS.x264-LTT","amp;tr":["udp%3A%2F%2Ftracker.openbittorrent.com%3A80","udp%3A%2F%2Fopen.demonii.com%3A1337","udp%3A%2F%2Ftracker.coppersurfer.tk%3A6969","udp%3A%2F%2Fexodus.desync.com%3A6969"],"infoHash":"9325737c708c53b8fa2c034b4dd55fa822b87939","infoHashBuffer":{"type":"Buffer","data":[147,37,115,124,112,140,83,184,250,44,3,75,77,213,95,168,34,184,121,57]},"announce":[],"urlList":[]}}